<?xml version="1.0" encoding="UTF-8"?>
<svg id="_圖層_2" data-name="圖層 2" xmlns="http://www.w3.org/2000/svg" viewBox="0 0 259.19 244.36">
  <defs>
    <style>
      .cls-1 {
        fill: none;
        stroke: #231815;
        stroke-miterlimit: 10;
      }
    </style>
  </defs>
  <g id="_圖層_3" data-name="圖層 3">
    <g>
      <path class="cls-1" d="M258.69,57.67V243.86h-49.94l-89.42-18.97,10.26-96s38.04,6.43,35.7-43.62c0,0,.75-22.44-8.41-45.8L221.53,15.86s2.58,44.65,37.16,41.81Z"/>
      <line class="cls-1" x1="129.6" y1="128.89" x2="258.69" y2="128.89"/>
      <line class="cls-1" x1="119.34" y1="224.89" x2="258.69" y2="224.89"/>
      <line class="cls-1" x1="208.76" y1="128.89" x2="208.76" y2="243.86"/>
      <line class="cls-1" x1="166.33" y1="36.02" x2="166.33" y2="128.89"/>
    </g>
    <g>
      <path class="cls-1" d="M39.98,.6L114.31,26.15s-10.48,27.48-11.14,52.25,13.46,49.94,26.43,50.33l-10.26,96-118.84-.39V12.99s22.32,.19,26.32-1.55,7.74-2.32,13.16-10.84Z"/>
      <line class="cls-1" x1="102.5" y1="22.09" x2="102.5" y2="128.73"/>
      <line class="cls-1" x1=".5" y1="128.73" x2="129.6" y2="128.73"/>
    </g>
  </g>
</svg>