<?xml version="1.0" encoding="UTF-8"?>
<svg id="_圖層_2" data-name="圖層 2" xmlns="http://www.w3.org/2000/svg" viewBox="0 0 199.32 804.59">
  <defs>
    <style>
      .cls-1 {
        fill: #0d0d0d;
      }

      .cls-2 {
        fill: #181818;
      }

      .cls-3 {
        fill: #0e0e0e;
      }

      .cls-4 {
        fill: #191919;
      }

      .cls-5 {
        fill: #1a1a1a;
      }

      .cls-6 {
        fill: #010101;
      }
    </style>
  </defs>
  <g id="_圖層_1-2" data-name="圖層 1">
    <g>
      <path class="cls-6" d="M103.21,441.52c.05,2.33,.15,4.66,.15,6.99,0,106.28,0,212.56,0,318.83,0,1.94,0,3.87,0,6.74,8.77-7.25,17.95-8.56,27.74-5.46,7.25,2.3,12.51,7.37,17.34,13.02,6.25,7.31,13.64,13.2,22.61,16.85,5.61,2.28,10.76,.66,13.77-3.62,2.79-3.96,1.55-12.38-5.24-12.45-.66,.45-.72,1.05-.35,1.7,1.36,2.39,1.05,4.53-1.17,6.15-1.95,1.43-4.12,1.29-6.1,.03-2.37-1.5-3.29-3.78-2.51-6.47,1.28-4.42,4.52-6.41,8.97-6.54,6.62-.2,12.21,4.92,12.71,11.58,.56,7.46-5.14,14.42-12.67,15.49-6.89,.97-12.8-1.47-18.16-5.46-2.93-2.18-5.62-4.69-8.34-7.13-2.55-2.29-5.01-4.68-7.88-7.38-.09,3.37,.15,6.48-.92,9.47-2.8,7.81-10.08,11.62-17.99,9.23-4.78-1.45-7.59-5.91-7.4-11.74,.17-5.09,2.77-8.54,7.17-9.57,1.5-.35,2.95-.35,4.43,.13,3.09,1.02,4.74,3.2,4.43,6.39-.25,2.55-1.74,4.25-4.62,4.26-3.52,.02-4.61-2.03-4.07-5.45-3.88,2.59-4.5,6.21-2.03,9.34,2.74,3.46,8.69,3.86,12.1,.8,3.78-3.38,4.94-10.34,2.64-15.82-3.39-8.07-14.22-12.1-23.99-8.92-8.63,2.81-14.57,12.57-12.65,20.78,.52,2.23,1.67,3.95,3.76,5,1.61,.81,3.19,1,4.66-.23,.93-.78,1.61-1.82,1.18-3.06-.92-2.7-2.35-.13-3.53-.26-1.84-.2-2.71-1.39-2.62-3.05,.11-2.07,1.36-3.3,3.49-3.56,4.4-.53,8.05,4.82,6.45,9.47-1.87,5.44-8.72,7.03-13.08,2.95-1.16-1.08-2-2.5-3.14-3.96-1.85,2.93-3.75,5.66-7.49,6.14-3.79,.49-6.64-.98-8.2-4.3-1.57-3.34-.87-6.56,2.01-9.01,1.8-1.53,3.9-1.91,6-.56,1.41,.91,1.92,2.39,1.34,3.94-.87,2.34-2.5,2.22-4.4,1.13-.7-.4-1.25,.19-1.44,.89-.34,1.23,.03,2.29,.97,3.16,1.96,1.81,5.95,.74,7.6-2.22,1.53-2.73,1.62-5.72,.96-8.74-3.06-14.1-19.93-20.45-31.62-11.9-6.54,4.78-8.26,14.9-3.54,20.9,3.04,3.88,8.83,4.45,12.41,1.23,3.03-2.73,2.98-6.43-.36-10.06-1.19,1.64-.37,4.51-3.02,5.11-2.48,.56-4.84,.41-5.97-2.19-1.38-3.18-.44-5.94,2.58-7.7,3.93-2.29,9.71-.18,11.84,4.18,2.44,4.99,.92,11.89-3.29,14.92-4.81,3.46-13.33,2.64-17.5-1.76-2.74-2.89-4.17-6.39-4.34-10.37-.07-1.63-.01-3.27-.01-4.65-2.7,2.4-5.55,4.83-8.28,7.39-5.13,4.8-10.39,9.41-17.28,11.54-10.74,3.32-20.77-2.66-21.53-12.79-.61-8.16,6.24-14.7,14.13-13.49,4.35,.66,7.7,4.08,7.65,7.93-.03,2.31-.93,4.2-3.15,5.26-1.96,.93-3.91,.94-5.69-.31-1.9-1.33-2.11-3.24-1.49-5.35,.21-.72,1.22-1.42,.36-2.21-.88-.79-1.85-.27-2.76,.15-4.44,2.03-5.66,8.11-2.49,12.41,3,4.07,8.12,5.43,13.47,3.23,9.11-3.75,16.62-9.75,22.93-17.24,7.55-8.96,16.49-15.02,28.83-14.05,5.62,.44,10.77,2.1,14.67,6.48,2.59-1.45,1.31-3.91,1.31-5.85,.07-107.77,.05-215.55,.1-323.32,0-2.39-.9-5.05,1.25-7.1,.95-.42,1.61-.16,1.64,.91,.08,2.69,1.6,2.92,3.63,2.14,1.37-.52,2.81-1.58,3.03,1.05Z"/>
      <path class="cls-2" d="M33.48,133.62c.51-14.66,4.11-28.65,8.8-42.41,3.82-11.23,6.7-22.66,7.79-34.48,.22-2.35,1.14-3.51,3.28-4.31,5.05-1.9,9.47-4.82,13.04-8.94,.43-.5,1.13-1.43,1.38-1.33,4.24,1.72,8.52,3.38,12.57,5.48,2.05,1.06,.79,3.38,.55,5.02-2.43,16.85-7.06,33.16-12.21,49.35-4.53,14.25-9.77,28.38-9.24,43.7,.07,2.01-.77,2.68-2.66,2.48-6.62-.71-13.23-1.48-19.87-2.05-3.42-.29-3.25-2.8-3.4-5.03-.17-2.48-.04-4.98-.04-7.48Z"/>
      <path class="cls-2" d="M165.06,136.31c-.13,10.3,1.63,8.86-9.72,10.12-4.3,.48-8.62,.77-12.92,1.24-2.21,.24-3.39-.19-3.29-2.84,.51-13.73-3.62-26.63-7.51-39.52-5.24-17.37-10.19-34.79-13.17-52.73-.59-3.53,.44-4.78,3.67-6.56,6.48-3.57,11.68-3.9,16.39,2.35,.28,.38,.78,.71,1.23,.83,8.66,2.22,9.92,8.79,10.7,16.48,.99,9.77,4.22,19.14,7.24,28.49,4.37,13.54,7.02,27.38,7.39,42.15Z"/>
      <path class="cls-2" d="M166.2,417.97c0,4.82-.15,9.65,.06,14.47,.12,2.76-.82,3.8-3.56,4.07-7.78,.76-15.54,1.72-23.3,2.71-2.66,.34-3.91-.32-4.04-3.3-1.19-26.95-4.3-53.73-7.13-80.54-.3-2.89,.25-4.09,3.47-4.35,7.12-.57,14.24-1.44,21.29-2.6,4-.66,5.43,.44,6.08,4.52,3.46,21.55,5.57,43.23,7.12,65.01Z"/>
      <path class="cls-2" d="M32.94,421.66c.99-23.13,3.03-46.15,6.94-69,.65-3.82,1.91-4.41,5.51-3.79,6.88,1.19,13.85,1.99,20.81,2.47,3.6,.25,4.39,1.53,4.04,4.91-2.4,23.51-5.02,47-6.56,70.59-.21,3.16-.54,6.32-.5,9.47,.04,2.74-1.13,3.45-3.63,3.16-7.93-.93-15.87-1.83-23.81-2.62-2.74-.27-3.69-1.52-3.42-4.22,.36-3.64,.43-7.31,.62-10.97Z"/>
      <path class="cls-2" d="M199.26,80.25c-.47,20.36-5.56,39.75-12.19,58.84-.74,2.12-1.82,3.29-4.17,3.54-4.45,.46-9.8,2.98-13.05,1.31-3.19-1.64-1.15-7.78-1.36-11.89-.74-14.94-4.25-29.24-8.79-43.37-3.21-9.99-5.73-20.14-6.85-30.6-.21-1.93-.33-3.37,2.39-2.7,10.33,2.53,21.01,3.48,31.16,6.79,12.99,4.24,13.14,4.48,12.86,18.09Z"/>
      <path class="cls-2" d="M46.3,58.52c-1.24,10.93-3.8,21.09-7.22,31.01-5.86,16.95-9.57,34.27-9,52.3,.08,2.57-.64,3.25-3.07,2.71-3.73-.84-7.49-1.55-11.25-2.23-1.88-.34-2.8-1.48-3.4-3.19C4.81,117.47-.52,95.44,.04,72.27c.08-3.39,1.49-5.04,4.23-6.48,10.68-5.62,22.55-6.7,34.05-9.18,1.46-.32,2.96-.51,4.39-.94,3.19-.96,4.46-.02,3.59,2.86Z"/>
      <path class="cls-4" d="M103.21,441.52c-2.18-1.68-7.14,2.1-7.23-3.68-.43-.43-.79-.91-1.07-1.45-.68-16.81-.23-33.63-.25-50.45,0-7.84-.34-15.61-1.61-23.36-.62-3.75-2.28-5.74-6.05-5.92-3.76-.85-6.5,.19-8.01,4-.59,1.48-1.96,2.47-3.62,1.81-1.55-.61-1.37-2.21-1.05-3.49,.55-2.2-.27-4.79,1.8-6.56,5.49,.06,10.99,.34,16.47,.11,3.62-.15,4.43,1.22,4.4,4.6-.18,25.64-.24,51.28-.15,76.92,0,2.07-1.75,6.01,1.81,6.01,2.84,0,1.49-3.79,1.5-5.82,.15-25.47,.23-50.95,.1-76.42-.02-4.06,1-5.59,5.24-5.42,5.14,.21,10.32-.14,15.46-.59,2.62-.23,3.58,.62,3.82,3.11,2.59,27,5.67,53.96,7.24,81.06,.16,2.82-.76,3.89-3.53,3.94-6.66,.13-13.31,.41-19.96,.67-1.8,.07-3.7-.34-5.3,.91Z"/>
      <path class="cls-2" d="M95.86,435.84c.04,.67,.07,1.33,.11,2.01-2.37,3.06-1.75,6.66-1.75,10.1-.03,106.32,0,212.64-.11,318.96,0,2.24,1.86,5.42-1.87,6.79,1.8-1.61,1.01-3.75,1.01-5.64,.04-107.29,.01-214.58,.13-321.87,0-4.31-.99-5.9-5.49-5.62-5.14,.32-10.33-.37-15.48-.19-4.38,.15-5.95-1.02-5.66-5.86,1.32-22.46,3.72-44.81,5.94-67.18,.41-4.14,.86-8.28,1.3-12.42,.14-1.29,0-2.86,2.12-2.45-.59,2.68-1.6,5.35-.36,8.61,2.29-1.98,.45-5.54,3.01-6.89,2.46-1.3,5.14-.63,7.74-.63,2.81,1.08,6.7-1.17,8.49,1.21,1.8,2.39,.58,6.11,.59,9.24,.05,22.13,.02,44.26,.04,66.4,0,1.82-.24,3.66,.24,5.46Z"/>
      <path class="cls-2" d="M101.09,99.76c0-14.98,.13-29.96-.09-44.94-.06-3.66,1.02-4.82,4.61-5.13,8.64-.74,8.75-.95,10.15,7.64,3.35,20.6,10.13,40.3,15.73,60.31,2.39,8.52,4.09,17.13,4.22,26.03,.05,3.54-1.11,4.93-4.87,4.94-8.32,.03-16.64,.4-24.94,.95-3.86,.25-5.13-.8-5.06-4.86,.25-14.98,.1-29.96,.1-44.94h.15Z"/>
      <path class="cls-2" d="M97.05,131.41c.3,5.79,2.41,13.14-.69,16.92-3.04,3.71-10.6,.88-16.18,.96-4.48,.07-8.96-.5-13.44-.52-2.82-.01-3.66-1.2-3.73-3.88-.22-8.42,1.46-16.52,3.76-24.53,5.41-18.82,12.28-37.24,15.86-56.57,.39-2.12,.8-4.24,1.17-6.37q1.55-9.02,10.61-7.12c2.72,1,2.19,3.33,2.19,5.42,.01,23.43,0,46.87,.03,70.3,0,1.8-.43,3.65,.42,5.4Z"/>
      <path class="cls-2" d="M97.09,203.71c0,15.47-.09,30.94,.07,46.41,.03,3.38-.74,4.61-4.39,4.51-10.48-.27-10.45-.1-10.82-10.42-.81-22.45-6.33-44.03-12.26-65.53-2.03-7.36-3.58-14.86-5.38-22.29-.68-2.83-.27-4.26,3.28-4.05,8.63,.5,17.29,.77,25.93,.79,3.28,0,3.77,1.36,3.76,4.17-.1,15.47-.05,30.94-.05,46.41h-.14Z"/>
      <path class="cls-2" d="M113.78,153.25c6.09-1.2,12.29-.5,18.41-1.12,3.15-.32,2.5,1.61,2.18,3.48-2.44,14.65-7.15,28.73-10.72,43.1-4.11,16.54-6.99,33.26-6.93,50.32,.01,4.61-1.49,5.89-5.66,5.41-1.97-.22-3.98-.1-5.98-.13-2.39-.32-3.56-1.25-3.55-4.1,.12-30.88,.11-61.77,.02-92.65,0-2.79,.74-3.92,3.64-3.7,2.81,.22,5.64,.05,8.46,.05,.5,0,1,0,1.49,0-.56-.01-1-.27-1.37-.67Z"/>
      <path class="cls-2" d="M77.97,268.81c-1.33,23.48-3.89,49.31-6.47,75.15-.34,3.35-1.22,4.66-4.82,4.07-6.56-1.06-13.18-1.97-19.81-2.41-4.49-.3-5.44-1.71-4.43-6.16,3.79-16.57,9.1-32.68,14.03-48.91,2.91-9.57,5.3-19.26,5.87-29.29,.2-3.45,1.11-5.47,5.05-4.34,.78,.22,1.65,.16,2.48,.22q8.48,.56,8.09,11.66Z"/>
      <path class="cls-2" d="M128.85,257.17c6.74-.41,6.79-.41,7.48,6.18,1.62,15.52,6.81,30.12,11.49,44.85,3.37,10.62,6.22,21.38,8.74,32.24,.73,3.15,0,4.19-3.02,4.5-7.28,.75-14.56,1.55-21.8,2.58-3.62,.51-4.41-.99-4.72-4.29-2.44-25.5-5.05-50.98-6.45-76.57-.49-8.95-.62-8.94,8.29-9.48Z"/>
      <path class="cls-2" d="M190.16,402.22c0,6.14-.14,14.8,.07,23.45,.08,3.08-1.04,4.64-3.87,5.37-4.18,1.08-8.41,2.06-12.49,3.45-3.84,1.31-3.97-.66-4.09-3.58-.7-17.3-1.52-34.6-3.64-51.8-1.1-8.91-2.34-17.82-3.88-26.67-.66-3.79-.36-5.74,4.13-6.21,5.1-.53,10.2-1.69,15.12-3.18,3.66-1.11,4.17,.36,4.58,3.37,2.4,17.68,3.48,35.45,4.06,55.78Z"/>
      <path class="cls-2" d="M9.21,400.45c.68-17.81,1.66-35.59,3.98-53.28,.48-3.64,1.22-5.32,5.47-3.86,4.85,1.66,9.98,2.56,15.04,3.56,2.55,.5,3.61,1.18,3.06,4.2-4.86,26.42-7.02,53.12-7.71,79.94-.1,4.08-1.22,4.58-4.98,3.64-14.87-3.7-14.9-3.57-14.88-18.71,0-5.16,0-10.32,0-15.49Z"/>
      <path class="cls-2" d="M120.17,247.51c.71-23.34,5.5-43.57,11.08-63.67,2.67-9.63,5.41-19.24,6.88-29.14,.32-2.13,1.01-3.19,3.37-3.36,6.14-.45,12.28-1.09,18.39-1.85,3.2-.4,3.87,.59,2.72,3.48-4.6,11.6-9.13,23.23-13.67,34.86-7.75,19.84-13.29,40.16-13.16,61.66,.02,2.71-.79,4.08-3.66,3.88-1.16-.08-2.33,.08-3.49,.14q-8.6,.4-8.45-6Z"/>
      <path class="cls-2" d="M35.1,149.72c7.89,.72,15.3,1.4,22.72,2.05,1.57,.14,2.27,.89,2.55,2.47,4.27,24.26,13.31,47.44,16.43,71.97,1.01,7.94,1.51,15.9,1.68,23.9,.07,3.14-.9,3.87-4.01,3.7-10.89-.59-10.96-.45-11.64-11.4-1.47-23.79-9.21-45.87-18.28-67.6-3.38-8.1-6.92-16.15-9.44-25.09Z"/>
      <path class="cls-2" d="M149.93,255.64c1.65-.28,2.73,.28,3,2.22,1.52,10.87,7.07,20.03,12.87,28.94,9.42,14.46,15.37,30.12,18.25,47.08,.63,3.72,.02,5.43-3.97,6.01-5.25,.77-10.41,2.15-15.62,3.25-2.08,.44-3.81,.63-4.36-2.33-3.9-20.99-11.87-40.84-17.24-61.42-1.6-6.13-2.48-12.37-3.17-18.67-.34-3.09,.07-4.75,3.66-4.55,2.14,.12,4.3-.33,6.58-.53Z"/>
      <path class="cls-2" d="M52.37,255.9c7.21,.7,7.08,.69,6.29,7.84-1.37,12.31-4.88,24.09-8.64,35.81-4.27,13.3-8.31,26.66-11.05,40.37-.57,2.85-1.4,4.48-4.85,3.49-5.27-1.5-10.63-2.7-16-3.79-2.81-.57-3.39-1.94-2.9-4.56,2.79-14.78,6.5-29.2,14.79-42.06,3.42-5.31,6.5-10.83,9.61-16.34,2.86-5.08,5.26-10.38,6.49-16.13,1.1-5.14,1.07-5.15,6.29-4.64Z"/>
      <path class="cls-4" d="M100.63,303.43c0-13.64,.08-27.27-.06-40.91-.03-3.16,.85-4.27,4.17-4.37,11.94-.35,11.8-.47,12.43,11.36,1.32,24.74,3.81,49.4,6.44,74.02,.42,3.94-.56,4.97-4.27,4.93-4.65-.04-9.32,.23-13.95,.68-3.8,.37-5.22-.67-5.14-4.81,.27-13.63,.1-27.27,.1-40.91h.27Z"/>
      <path class="cls-4" d="M96.94,303.66c0,13.64-.14,27.28,.09,40.91,.06,3.8-1.12,5.01-4.81,4.69-4.47-.39-8.97-.58-13.45-.5-3.45,.06-4.08-1.39-3.76-4.51,1.6-15.88,3.13-31.77,4.48-47.67,.97-11.43,1.74-22.88,2.32-34.34,.17-3.27,.72-4.61,4.48-4.37,10.79,.7,10.79,.51,10.78,11.36-.01,11.48,0,22.95,0,34.43h-.11Z"/>
      <path class="cls-2" d="M184.49,146.12c-2.86,7.22-5.39,13.67-7.97,20.09-8.62,21.45-17.87,42.7-21.84,65.69-.9,5.23-1.41,10.55-1.78,15.86-.2,2.95-.89,4.53-4.28,4.57-10.94,.13-9.72,2.4-9.21-9.02,.89-19.68,6.49-38.3,13.67-56.5,4.69-11.91,10.11-23.55,13.87-35.82,.42-1.37,.84-2.42,2.5-2.65,4.74-.64,9.46-1.39,15.05-2.22Z"/>
      <path class="cls-2" d="M14.84,146.04c5.44,.96,9.97,1.78,14.52,2.53,1.38,.23,1.93,1.12,2.3,2.29,6.38,20.13,16.35,38.92,21.91,59.36,3.42,12.57,5.64,25.28,5.83,38.35,.05,3.33-.98,4.57-4.25,3.94-.97-.19-2-.27-2.98-.16-3.99,.43-5.43-1.24-5.64-5.29-1.33-25.35-10.63-48.53-19.89-71.71-3.8-9.51-7.65-19-11.8-29.3Z"/>
      <path class="cls-4" d="M100.26,18.22c-7.97-.56-15.6-1.24-22.7-4.55-4.61-2.15-4.94-4.18-1.09-7.55,3.37-2.95,7.53-4.18,11.82-4.99,9.32-1.76,18.57-1.59,27.65,1.31,2.04,.65,4,1.66,5.84,2.76,2.39,1.43,4.39,3.6,4,6.45-.34,2.52-3.28,2.42-5.22,3.08-6.67,2.27-13.59,3.18-20.3,3.49Z"/>
      <path class="cls-4" d="M107.26,21.28c4.08-1.54,5.08,.06,5.1,3.83,.04,5.45,.53,10.92,1.18,16.34,.33,2.76-.35,3.73-3.14,4.21-9.32,1.63-9.3,1.76-9.3-7.5,0-3.31,.25-6.65-.06-9.93-.47-4.94,.31-8.35,6.22-6.95Z"/>
      <path class="cls-5" d="M73.22,16.12c.31,0,.48-.05,.63,0,9.49,3.55,9.52,3.55,9.17,13.81-.11,3.32-.62,6.63-.63,9.94-.01,3.49-1.16,4.58-4.4,2.82-1.89-1.03-3.88-1.89-5.76-2.93-.96-.53-2.27-1.06-1.68-2.6,1.31-3.47,1.75-7.06,1.87-10.74,.12-3.44-.29-6.95,.82-10.3Z"/>
      <path class="cls-2" d="M97.48,34.39c0,2.49,0,4.98,0,7.48,0,2.5,.37,5.66-3.64,4.41-2.94-.92-8.51,2.1-7.98-4.85,.44-5.8,.79-11.61,.86-17.42,.04-2.81,.8-3.71,3.71-3.41,7.1,.73,7.11,.59,7.09,7.81,0,1.99,0,3.99,0,5.98h-.04Z"/>
      <path class="cls-5" d="M115.98,28.16c0-.67,.02-1.33,0-1.99-.16-5.23,3.95-9.27,9.12-9.06,1.89,.08,1.52,1.48,1.57,2.47,.31,5.94-.08,11.92,2.22,17.67,1.01,2.52-1.75,2.8-3.2,3.54-8.14,4.15-8.18,4.12-9.11-4.69-.28-2.64-.4-5.29-.59-7.94Z"/>
      <path class="cls-1" d="M113.78,153.25h9.9c0,.39,.02,.78,.02,1.17-5.29,0-10.59,.13-15.88-.04-3.91-.13-5.77,1.14-5.76,5.39,.1,29.58,.07,59.17,.03,88.75,0,2.55,.64,4.57,2.99,5.81-3.13,.79-4.44-.1-4.42-3.64,.18-31.2,.25-62.4,.21-93.6,0-3.08,.93-4.15,3.96-3.93,2.97,.22,5.96,.08,8.94,.09Z"/>
      <path class="cls-3" d="M97.05,131.41c-1.21-2.15-.93-4.52-.93-6.83-.02-22.26,.01-44.51-.05-66.77,0-2.47,.9-5.61-3.01-6.36-.75-.14-1.47-.47-.12-.93,.47-.16,.98-.16,1.47-.23,2.66-.53,3.03,.99,3.02,3.15-.15,25.99-.26,51.97-.38,77.96Z"/>
      <path class="cls-6" d="M95.86,435.84c-1.1-2.02-.72-4.23-.73-6.37-.02-21.29-.01-42.58-.01-63.88q0-9.75-8.63-12.07,9.49-.09,9.49,9.41c-.03,24.3-.08,48.6-.12,72.9Z"/>
    </g>
  </g>
</svg>