<?xml version="1.0" encoding="UTF-8"?>
<svg id="_圖層_2" data-name="圖層 2" xmlns="http://www.w3.org/2000/svg" viewBox="0 0 206.58 808.32">
  <defs>
    <style>
      .cls-1 {
        fill: #181818;
      }

      .cls-2 {
        fill: #fdfdfd;
      }

      .cls-3 {
        fill: #141414;
      }

      .cls-4 {
        fill: #fefefe;
      }

      .cls-5 {
        fill: #fcfcfc;
      }
    </style>
  </defs>
  <g id="_圖層_1-2" data-name="圖層 1">
    <g>
      <path class="cls-3" d="M60.41,446.11c-15.54-.53-30.78-2.69-45.51-7.93-4.09-1.45-5.83-3.62-5.81-8.35,.14-33.34,.8-66.59,7.7-99.41,2.81-13.37,6.6-26.51,14.93-37.26,18.29-23.59,17.04-48.81,8.8-75.32-6.93-22.3-16.57-43.53-24.82-65.31-6.62-17.49-12.12-35.25-14.55-53.86-.12-.95,.02-2.05-1.15-2.54v-25.99c9.98-7.36,21.71-9.78,33.55-11.92,7.04-1.27,14.12-2.44,20.85-5,12.61-4.79,17.64-11.82,18.01-25.13,.08-3,.39-5.99,.41-8.98,.08-8.74,4.73-13.89,12.76-16.37,12.14-3.75,24.29-3.69,36.33,.4,6.89,2.34,11.41,6.71,11.58,14.52,.08,3.83,.46,7.65,.43,11.48-.08,10.27,4.83,17.38,13.68,22.04,7.8,4.11,16.41,5.36,24.91,6.96,10.16,1.91,20.27,3.82,29.47,8.98,3.13,1.76,4.39,3.91,4.51,7.49,.88,25.61-5.25,49.85-14.01,73.61-8.45,22.96-19,45.12-26.07,68.6-3.46,11.52-5.76,23.24-6.55,35.28-.53,8.06,.99,15.56,4.72,22.66,1.78,3.39,3.32,6.97,5.54,10.05,16.78,23.36,21.84,50.39,24.72,78.11,2.32,22.4,2.46,44.89,2.55,67.39,.02,4.3-1.53,6.27-5.34,7.54-16.09,5.39-32.69,7.62-49.55,8.27-3.92,1.03-7.82,0-11.73-.14-1.28-.05-2.19-.66-2.18-2.12,3.82-3.88,4.32-8.71,3.91-13.8-1.32-16.36-2.87-32.71-4.46-49.05-.5-5.12-1.01-10.23-1.57-15.34-.3-2.74-.87-5.28-3.7-6.56-5.51-.76-10.48-3.82-16.2-3.63-1.39,.04-2.59-.5-2.88-2.11,.9-2.24,2.95-2.43,4.92-2.7,3.29-.45,6.57-.93,9.89-1.19,4.37-.34,5.96-2.23,5.59-6.54-.89-10.42-2.12-20.81-2.94-31.24-.95-12.08-2.37-24.12-2.64-36.24-.04-1.83-.03-3.66-.43-5.46-.73-3.35-2.64-5.33-6.24-5.17-3.44,.16-4.89,2.27-5.35,5.46-.31,2.2,.27,4.82-2.44,6.09-3.17-1.01-.53-3.72-1.29-5.32,.96,25.06,.64,50.18,.73,75.29,0,1.67,.12,3.34-.13,4.99-.4,2.63-1.77,4.22-4.65,4.21-2.5-.01-5.01,.14-7.5,0-4.34-.23-7.76,1.38-10.4,4.76-2.48,6.67-2.36,13.75-3.04,20.65-1.76,17.86-3.85,35.69-4.55,53.65-.13,3.43,.9,6.51,1.27,9.78-1.09,2.13-2.98,1.83-4.68,1.27-1.87-.61-1.34-2.42-1.28-3.81,.09-1.9-.35-3.67-1.43-5.11-2.02-2.67-2.48-5.63-2.22-8.81,1.25-16.89,2.95-33.76,4.62-50.62,.46-4.63,1.16-9.23,1.23-13.91,.05-3.42-1.45-5.21-4.76-5.89-4.58-.94-9.24-1.1-13.86-1.68-4.06-.51-6.12,1.76-6.82,5.61-1.7,9.33-2.63,18.76-3.79,28.17-1.57,12.71-1.67,25.52-2.88,38.26-.78,8.25,.94,10.33,9.32,11.35,6.53,.79,13.12,1.82,19.6-.51,2.38,6.84,.73,8.54-7.12,7.39Z"/>
      <path class="cls-1" d="M125.35,447.24c-4.94,1-9.96,.66-14.94,.72-2.55,.03-3.77,.79-3.44,3.44,.08,.66,0,1.33,0,2,0,106.47,0,212.93,0,319.4,0,1.32,0,2.65,0,3.94,.54,.08,.96,.28,1.15,.15,14.35-9.72,29.28-7.84,41.41,5.71,6.74,7.53,13.93,14.31,23.08,18.78,3.08,1.5,6.25,2.46,9.65,1.52,4.42-1.23,7.29-4.08,7.64-8.78,.29-3.94-1.66-6.68-5.43-7.99-.42-.15-.96,.03-1.33,.05-.85,.65-.44,1.29-.13,1.83,1.25,2.25,.82,4.24-1.06,5.81-1.68,1.39-3.69,1.45-5.66,.58-2.19-.97-3.29-2.73-3.37-5.11-.13-4.06,3.28-7.68,7.91-8.19,5.09-.56,9.2,1.32,11.96,5.65,3.11,4.88,2.63,9.85-.34,14.61-3.88,6.2-11.43,8.48-19.48,5.93-8.09-2.55-13.91-8.33-19.7-14.1-1.73-1.73-3.35-3.57-5.95-6.37,.54,4.16,.57,7.06-.27,9.91-2.4,8.12-9.13,12.14-17.37,10.25-5.2-1.19-8.49-5.7-8.42-11.52,.07-5.16,2.91-9.01,7.45-9.92,1.12-.22,2.34-.3,3.45-.1,3.41,.6,5.38,2.75,5.3,6.2-.06,2.53-1.35,4.4-4.25,4.66-3.82,.34-4.69-2.13-4.62-5.84-3.15,1.87-3.71,4.08-3.21,6.68,.61,3.12,2.69,4.93,5.68,5.64,3.34,.8,6.28,.01,8.59-2.64,4.11-4.72,3.94-13.25-.36-18.55-4.62-5.68-14.21-7.99-22.02-5.3-7.31,2.52-12.78,9.92-12.78,17.47,0,3.49,.93,6.66,4.4,8.33,2.6,1.25,4.65,.56,5.44-2.29,.33-1.2,.15-3-2-1.87-1.68,.89-2.87,.52-3.77-1.02-.77-1.34-.37-2.6,.54-3.69,1.21-1.45,2.88-1.76,4.55-1.19,3.91,1.35,5.3,4.42,4.8,8.27-.5,3.91-4.39,6.67-8.35,6.23-3.67-.41-5.98-2.66-7.63-5.81-1.93,.47-2.11,2.45-3.31,3.51-3.38,3-8.24,3.2-11.3,.14-3.05-3.06-3.04-6.55-.75-9.98,1.53-2.29,3.86-3.26,6.54-2.17,1.68,.68,2.57,2.14,2.11,4.05-.35,1.47-1.38,2.39-2.91,2.09-1.31-.25-3.04-1.95-3.06,.97-.02,2.5,1.8,3.63,4.05,3.23,3.62-.65,5.13-3.39,5.69-6.76,1.11-6.69-3.55-15.01-10.36-18.49-11.83-6.04-26.58,.6-27.56,12.46-.35,4.3,.45,8.35,3.91,11.36,3.15,2.75,8.68,2.61,11.35-.5,2.7-3.14,3.09-6.48-.41-9.77-1.91,1.34-.48,4.58-3.2,5.14-2.46,.51-4.87,.52-6-2.12-1.34-3.14-.63-6.11,2.5-7.72,3.62-1.86,7.31-1.2,10.11,1.7,3.32,3.44,3.59,7.7,2.16,12.14-1.3,4.04-4.09,6.34-8.23,7.07-9.69,1.71-17.32-4.78-17.46-14.92-.02-1.31,.19-2.63,.31-4.15-1.94-.01-2.44,1.63-3.33,2.59-4.8,5.11-9.73,10.06-15.76,13.77-4.98,3.07-10.31,4.68-16.2,3.6-6.7-1.23-11.96-7.34-12.15-14.02-.16-5.6,3.6-10.88,9.03-12.41,4.32-1.22,8.36-.71,11.29,3.06,2,2.57,2.53,5.53,.29,8.27-1.93,2.36-4.57,2.82-7.18,1.27-3.24-1.92-2.26-4.73-1-7.44-5.29-.47-8.7,3.97-7.2,9.22,1.74,6.08,8.42,9,15.03,6.29,9.28-3.81,16.81-10.04,23.26-17.64,7.22-8.51,15.79-14.23,27.54-13.71,6.04,.27,11.3,2.35,15.94,6.49,1.13-1.66,.71-3.17,.71-4.56,.02-106.47,0-212.93,.14-319.4,0-4.55-1.3-5.63-5.58-5.48-4.96,.18-9.99,.41-14.93-.66,.92-1.91,2.73-1.68,4.34-1.66,6.18,.07,12.25-1.03,18.36-1.69,.56-.12,1.13-.2,1.71-.27,.57-.03,1.15-.04,1.73-.01,.58,.04,1.15,.13,1.71,.24,5.53,.69,11.03,1.75,16.64,1.72,1.6,0,3.37-.23,4.28,1.66Z"/>
      <path class="cls-1" d="M128.98,444.06c4.31,2,8.96,1.7,13.52,2.07-3.45,1.16-7.01,.89-10.55,.82-8.36-.61-16.74-.78-25.1-1.4-1.29-.1-2.65,.32-3.85-.49l-.03-.02c-1.84-1.69-1.47-3.94-1.48-6.07-.03-9.62-.27-19.26,.05-28.87,.45-13.79-1.46-27.5-1.01-41.26,.27-8.29-2.81-11.12-10.53-10.32-4.35-.53-8.56,1.03-12.89,.83-.26-2.6,.91-3.9,3.48-4.51,4.28-1.01,8.59-.72,12.9-.75,8.27-.06,8.48-.22,8.48-8.29,0-25.74,0-51.49,0-77.23,0-1.73,0-3.46,0-5.19,1.72,4.19,0,8.65,1.92,12.72,2.47,1.13,2.4,3.47,2.42,5.57,.23,21.78,.21,43.56,.02,65.34-.02,2.19-.26,4.35-2.25,5.79,6.89,2.26,14.08,1.93,21.17,2.41-.06,1.83-1.23,2.59-2.82,2.93-1.14,.24-2.3,.29-3.46,.35-12.25,.6-12.52,.87-12.52,12.94,0,19.91-.03,39.83,.01,59.74,.02,8.92,1.48,10.32,10.48,10.41,2.49,.02,4.98-.06,7.46,.16,1.81,.16,3.73,.21,4.56,2.32Z"/>
      <path class="cls-1" d="M60.41,446.11c7.15-.29,8.12-1.32,6.62-7.05-3.55-4.18-3.22-9.52,.78-12.36,.41,4.88,.83,9.75,1.22,14.63,.27,3.4,1.95,4.27,4.95,2.79,.96-2.33,3.09-2.25,5.05-2.4,3.48-.26,6.98-.01,10.47-.21,5.73-.33,7.71-2.23,7.91-8.04,.26-7.47,.07-14.96,.08-22.44,.02-15.62-.07-31.25,.06-46.87,.02-2.89-.57-6.11,2.38-8.22,2.14,.19,1.49,1.86,1.51,3.04,.45,27.26,.65,54.52,.51,81.79,0,1.49,.09,3.02-.98,4.27h-.02c-8.33,1.16-16.74,.81-25.09,1.51-1.63,.14-3.31-.36-4.87,.43-3.56,.06-7.14,.39-10.59-.88Z"/>
      <path class="cls-3" d="M71,446.99c9.87-2.55,19.95-1.8,29.97-1.93-7.98,2.33-16.22,1.77-24.38,2.19-1.86-.09-3.73-.17-5.59-.26Z"/>
      <path class="cls-3" d="M103,445.06c9.7-.11,19.37,.14,28.95,1.89-2.2,.1-4.4,.2-6.59,.29-7.48-.42-15.07,.2-22.36-2.18Z"/>
      <path class="cls-4" d="M37.03,139.73c.51-13.91,2.97-27.45,7.48-40.62,4.27-12.47,7.85-25.11,9.11-38.27,.27-2.78,1.4-4.02,3.87-4.95,4.72-1.8,8.93-4.54,12.2-8.44,1.42-1.7,2.57-2.32,4.47-.77,1.01,.83,2.29,1.35,3.48,1.94q7.54,3.7,6.15,12.25c-3.1,19.13-9.29,37.44-15.02,55.87-3.27,10.52-6.23,21.1-5.7,32.28,.12,2.58-.92,3.13-3.24,2.85-5.45-.65-10.92-1.46-16.4-1.62-4.91-.15-7-2.14-6.42-7.01,.14-1.15,.02-2.33,.02-3.49Z"/>
      <path class="cls-4" d="M168.26,130.32c.79,21.34,1.44,18.54-10.94,19.94-4.46,.5-9.89,2.47-13.16,.66-3.68-2.04-1.18-8.13-1.81-12.42-2.28-15.74-7.77-30.59-12.01-45.78-3.36-12.02-6.17-24.15-8.32-36.44-.61-3.51,.43-4.89,3.75-6.58,6.19-3.16,11.38-4.48,15.95,2.15,.44,.63,1.29,1.17,2.05,1.37,7.71,2.02,9.45,7.68,10.03,14.81,.76,9.3,3.68,18.23,6.53,27.09,4.4,13.67,7.75,27.52,7.91,35.2Z"/>
      <path class="cls-4" d="M169.01,417.64c.28,6.15,.47,12.31,.88,18.45,.18,2.72-.72,3.84-3.51,4.11-7.78,.75-15.54,1.75-23.3,2.69-2.43,.3-3.98,.15-4.12-3.11-1.2-26.44-4.16-52.74-7.01-79.03-.49-4.47,.63-6.04,5.21-6.29,6.79-.37,13.57-1.39,20.31-2.39,3.12-.47,4.34,.31,4.91,3.58,3.58,20.53,5.46,41.22,6.64,62Z"/>
      <path class="cls-4" d="M67.81,426.7c-1.04,4.07-.88,8.22-.78,12.36-.03,2.9-.91,4.59-4.4,4.13-7.74-1.03-15.52-1.83-23.29-2.61-2.7-.27-3.5-1.47-3.4-4.18,.97-26.78,2.96-53.45,7.48-79.9,.59-3.45,1.46-4.76,5.38-3.96,6.17,1.27,12.5,1.79,18.79,2.42,6.8,.68,6.67,.56,6.01,7.19-1.97,19.85-3.82,39.72-5.69,59.58-.15,1.65-.07,3.31-.1,4.97Z"/>
      <path class="cls-4" d="M202.9,83.88c-.36,19.39-5.42,39.47-12.39,59.17-.68,1.93-1.68,3-3.84,3.24-4.45,.49-9.85,3.08-13.06,1.39-3.7-1.94-1.27-8.06-1.54-12.31-.86-13.2-3.41-26.03-7.45-38.59-3.62-11.25-6.79-22.61-8.16-34.4-.18-1.54-1.47-4.15,2.11-3.3,11.31,2.68,23.02,3.6,34.01,7.71q10.45,3.91,10.32,17.1Z"/>
      <path class="cls-4" d="M49.95,61.64c-1.25,11.21-3.92,21.84-7.52,32.23-5.82,16.8-9.31,33.98-8.78,51.83,.07,2.41-.74,2.96-2.83,2.55-3.91-.77-7.83-1.55-11.74-2.3-1.91-.37-2.62-1.74-3.21-3.41C8.39,121.22,3.17,99.52,3.64,76.7c.08-3.97,1.55-6.01,4.89-7.62,6.97-3.36,14.38-5.12,21.89-6.62,5.38-1.07,10.78-2.05,16.15-3.16,2.26-.47,4.15-.76,3.38,2.34Z"/>
      <path class="cls-4" d="M128.98,444.06c-6.99,.09-13.98,.04-20.96,.34-3.31,.14-4.24-1-4.22-4.24,.15-26.64,.19-53.27,.14-79.91,0-3,.88-4.04,3.94-4.09,5.8-.1,11.65,.32,17.4-.96,2.08-.04,2.73,1.05,2.94,3.05,2.8,27.31,5.86,54.59,7.28,82.02,.28,5.36-4.46,2.31-6.51,3.78Z"/>
      <path class="cls-4" d="M104.72,103.36c0-14.81,.11-29.62-.08-44.42-.05-3.65,.79-5.26,4.76-5.57,8.41-.66,8.41-.9,9.8,7.41,3.54,21.23,10.55,41.55,16.26,62.21,2.27,8.2,3.88,16.5,3.72,25.08-.05,2.87-.85,4.15-3.96,4.2-8.81,.16-17.63,.48-26.43,1.01-3.57,.21-4.5-1.07-4.46-4.49,.16-15.14,.07-30.28,.07-45.42,.1,0,.21,0,.31,0Z"/>
      <path class="cls-4" d="M100.91,103.59c0,15.14-.07,30.28,.06,45.42,.03,3.15-.74,4.47-4.14,4.29-8.8-.45-17.62-.69-26.43-.84-2.8-.05-3.67-1.16-3.76-3.84-.28-8.6,1.45-16.87,3.83-25.04,5.53-18.98,12.42-37.59,15.91-57.13,.38-2.13,.58-4.31,1.17-6.37,.68-2.35-.46-6.25,1.77-6.82,3.17-.81,6.87,.16,10.27,.75,2.42,.42,1.39,2.72,1.4,4.17,.08,15.14,.05,30.28,.05,45.42h-.13Z"/>
      <path class="cls-4" d="M104.36,207.65c0-15.31,.1-30.62-.07-45.93-.04-3.57,.81-4.95,4.67-4.94,8.15,.03,16.32-.22,24.44-.94,4.84-.43,5.11,1.41,4.32,5.3-2.78,13.71-6.96,27.05-10.35,40.59-4.26,17-7.16,34.2-7.18,51.76,0,3.35-.85,4.59-4.4,4.69-11.65,.33-11.63,.47-11.62-11.09,.01-13.15,0-26.29,0-39.44h.19Z"/>
      <path class="cls-4" d="M99.67,356.15c.93,1.7,.66,3.57,.66,5.38-.04,25.92-.2,51.84-.07,77.76,.02,4.24-1.27,5.4-5.36,5.17-6.96-.39-13.94-.26-20.92-.35-3.94,.15-3.92-2.29-3.74-5.27,1.42-23.41,3.86-46.73,6.2-70.06,.31-3.14,.45-6.29,.68-9.44,.42-2.66,1.75-3.8,4.62-3.4,2.37,.33,4.83,.06,7.26,.05,3.57-.54,7.13-.92,10.67,.15Z"/>
      <path class="cls-4" d="M100.71,207.7c0,15.3-.11,30.6,.08,45.9,.05,3.74-1.02,4.85-4.79,4.72-9.91-.33-10.12-.14-10.45-9.83-.82-23.65-6.84-46.28-13.04-68.91-1.8-6.56-3.06-13.27-4.64-19.9-.67-2.8,.05-3.81,3.13-3.65,8.63,.45,17.28,.78,25.93,.78,3.51,0,4.04,1.46,4.02,4.47-.12,15.47-.05,30.93-.05,46.4h-.18Z"/>
      <path class="cls-4" d="M81.26,281.51c-2.1,22.39-4.24,44.77-6.26,67.17-.23,2.58-1.15,3.47-3.74,3.12-7.59-1.02-15.19-1.97-22.81-2.76-3.12-.32-3.2-1.74-2.66-4.36,3.41-16.33,8.62-32.15,13.56-48.04,3.32-10.68,6.04-21.49,6.67-32.7,.16-2.81,1.1-3.99,3.96-3.38,.97,.21,1.99,.2,2.98,.27q9.28,.64,8.65,10.18c-.23,3.49-.46,6.98-.69,10.47l.34,.03Z"/>
      <path class="cls-4" d="M135.32,351.32c-3.22,.62-4.32-.61-4.65-3.92-2.68-26.97-5.36-53.93-6.79-81-.22-4.14,.92-5.42,5.08-5.48,9.86-.14,9.96-.36,11.35,9.69,1.98,14.25,6.77,27.73,11.07,41.35,3.36,10.62,6.23,21.37,8.75,32.22,.72,3.08,0,4.13-3.04,4.45-7.27,.78-14.52,1.78-21.77,2.69Z"/>
      <path class="cls-4" d="M193.8,404.85c0,8.16-.14,16.32,.07,24.48,.08,3.06-1.04,4.64-3.86,5.38-4.18,1.1-8.39,2.13-12.49,3.48-3.58,1.18-4.24-.35-4.3-3.51-.34-16.66-1.39-33.28-3.3-49.82-1.17-10.08-2.6-20.14-4.28-30.15-.54-3.18,.42-4.06,3.25-4.54,5.08-.87,10.22-1.68,15.12-3.19,4.28-1.32,5.35,.09,5.85,4.09,2.24,17.87,3.32,35.8,3.94,53.78Z"/>
      <path class="cls-4" d="M12.83,402.15c.64-17.31,1.71-34.57,4.02-51.75,.44-3.3,.98-4.71,4.8-3.5,5.21,1.66,10.63,2.75,16.02,3.75,2.64,.49,3.05,1.46,2.6,3.98-4.76,26.42-6.86,53.12-7.76,79.92-.12,3.6-.68,4.89-4.85,3.83-14.8-3.75-14.85-3.56-14.84-18.76,0-5.83,0-11.65,0-17.48Z"/>
      <path class="cls-4" d="M123.79,247.22c.82-20.98,5.89-41.15,11.45-61.22,2.49-8.99,4.93-17.98,6.43-27.2,.36-2.18,.73-3.61,3.48-3.78,6.14-.39,12.28-1.07,18.39-1.84,3.28-.42,3.74,.63,2.6,3.47-3.59,8.96-6.93,18.01-10.58,26.94-9.21,22.48-16.31,45.44-16.41,70.04,0,1.47,.23,3.18-2,3.31-3.82,.23-7.65,.46-11.47,.6-2.02,.07-1.85-1.52-1.87-2.83-.04-2.5-.01-5-.01-7.49Z"/>
      <path class="cls-4" d="M81.89,246.62q.27,10.95-8.42,10.57c-6.77-.3-6.87-.29-7.03-7.21-.55-24.06-8.04-46.36-17.03-68.32-3.34-8.15-6.38-16.42-9.69-24.58-1.37-3.38-.41-3.91,2.95-3.43,5.75,.82,11.58,1.16,17.37,1.69,1.85,.17,3.54,.21,3.96,2.77,3.34,20.55,10.75,40.14,14.48,60.6,1.82,10,3.05,20.05,3.39,27.9Z"/>
      <path class="cls-4" d="M150.84,259.61c4.04-1.55,5.47,.54,6.32,5.16,1.69,9.12,6.53,17.05,11.53,24.7,9.6,14.69,15.98,30.52,18.89,47.86,.7,4.16-.22,5.68-4.21,6.32-5.24,.84-10.41,2.14-15.62,3.22-1.92,.4-3.46,.54-3.99-2.16-4.08-21.1-11.95-41.15-17.4-61.87-1.3-4.96-1.97-10.11-2.68-15.2-1.02-7.26-.92-7.28,7.16-8.03Z"/>
      <path class="cls-4" d="M55.46,259.55c7.37,.75,7.34,.74,6.72,7.44-.95,10.34-3.62,20.29-6.73,30.13-4.91,15.54-9.87,31.08-13.1,47.08-.56,2.78-1.6,3.61-4.29,2.94-5.64-1.42-11.31-2.75-17-3.98-2.39-.52-2.72-1.73-2.31-3.94,2.6-13.95,5.82-27.65,13.35-39.99,4.59-7.52,8.85-15.25,13.14-22.94,2.12-3.79,3.94-7.87,4.33-12.15,.42-4.6,2.4-5.69,5.88-4.58Z"/>
      <path class="cls-4" d="M104.09,352.8c0-23.58,.02-47.17,0-70.75,0-1.99-.13-3.98-.2-5.96,.07-.66,.18-1.32,.19-1.98,.3-12.47,.3-12.38,12.68-12.56,2.68-.04,3.4,.8,3.52,3.34,1.29,27.58,4.02,55.05,6.83,82.51,.35,3.41-.48,4.79-4.09,4.78-6.31,0-12.63,.4-18.94,.63Z"/>
      <path class="cls-2" d="M100.4,307.65c0,13.47-.14,26.94,.09,40.41,.07,4.04-1.32,5.26-5.15,4.9-4.3-.4-8.63-.52-12.95-.52-3.11,0-4.22-.76-3.86-4.31,2.79-27.45,5.79-54.9,6.77-82.5,.11-3.17,.94-4.24,4.36-4.06,11.03,.59,11.03,.43,11.02,11.65,0,11.47,0,22.95,0,34.42h-.27Z"/>
      <path class="cls-2" d="M188.11,149.77c-5.49,13.7-10.65,26.48-15.74,39.29-8.14,20.47-14.99,41.29-16.14,63.53-.14,2.71-1.4,3.31-3.73,3.39-11.65,.38-9.85,2.03-9.47-8.71,.74-21.09,7.22-40.82,14.98-60.21,4.27-10.65,9.06-21.09,12.41-32.09,.44-1.44,.82-2.75,2.78-2.98,4.6-.55,9.17-1.35,14.91-2.22Z"/>
      <path class="cls-2" d="M18.39,149.72c5.58,.99,9.97,1.78,14.36,2.53,1.29,.22,1.99,.87,2.4,2.16,6.63,20.78,16.95,40.2,22.5,61.38,3.09,11.8,4.99,23.75,5.39,35.98,.13,3.92-1.14,5.11-4.82,4.44-1.46-.27-2.99-.25-4.49-.28-2.1-.05-3.42-.68-3.52-3.15-1-25.09-9.77-48.12-18.96-71.03-4.14-10.33-8.3-20.65-12.87-32.01Z"/>
      <path class="cls-2" d="M104.12,21.9c-8.15-.47-15.93-1.22-23.18-4.6-4.43-2.07-4.72-3.83-1.14-7.26,2.21-2.13,4.97-3.31,7.88-4.14,10.69-3.04,21.37-2.94,31.99,.3,1.73,.53,3.41,1.35,4.98,2.26,2.53,1.47,4.91,3.48,4.62,6.6-.29,3.15-3.66,2.88-5.83,3.6-6.36,2.09-12.95,3.03-19.33,3.25Z"/>
      <path class="cls-5" d="M116.88,43.94c-.28,1.33,1.51,3.99-.98,4.84-3.26,1.11-6.83,1.78-10.31,1.11-1.2-.23-.85-2.01-.86-3.14-.03-5.99,.09-11.98-.07-17.96-.07-2.73,.82-3.67,3.62-3.88,7.48-.56,7.42-.71,7.74,6.6,.18,3.99,.54,7.96,.85,12.43Z"/>
      <path class="cls-5" d="M101.08,37.74c0,2.32,.02,4.64,0,6.96-.03,2.86,.95,6.07-4.24,5.46-7.69-.9-7.8-.77-7.36-6.44,.41-5.28,.63-10.58,.7-15.88,.03-2.64,.49-3.86,3.61-3.56,7.31,.7,7.33,.54,7.32,7.99,0,1.82,0,3.64,0,5.47,0,0-.01,0-.02,0Z"/>
      <path class="cls-5" d="M86.49,34.89c-.19,3.15-.48,6.29-.56,9.45-.07,2.89-1.34,3.48-3.79,2.32-1.5-.71-2.97-1.48-4.51-2.08-3.19-1.25-4-3.1-2.75-6.52,1.8-4.9,1.1-10.19,1.19-15.32,.05-2.84,.75-3.31,3.49-2.14,7.73,3.3,7.79,3.16,6.93,14.29Z"/>
      <path class="cls-5" d="M119.75,33.42c-.04-.66-.08-1.33-.12-1.99-.51-8.03,.46-9.1,8.41-10.45,2.31-.39,2.07,.91,2.09,2.18,.12,5.98,.09,11.94,2.31,17.67,1.04,2.69-1.64,2.94-3.06,3.58-9.94,4.5-8.24,4.03-9.3-5.03-.23-1.97-.23-3.98-.33-5.97Z"/>
      <path class="cls-3" d="M99.67,356.15c-3.56,.36-7.12,.31-10.67-.15,.15-.07,.29-.17,.45-.21,10.7-2.73,12.18-1.37,12.61,9.14,1.09,26.7,.87,53.4,.92,80.11-.66,0-1.32,0-1.98,0,0-27.25,.02-54.49,0-81.74,0-2.44,.54-5.04-1.32-7.16Z"/>
    </g>
  </g>
</svg>